<?xml version="1.0" encoding="UTF-8" standalone="no"?>
<svg width="64" height="64" viewBox="0 0 100 100" xmlns="http://www.w3.org/2000/svg">
	<rect fill="#222" width="100" height="100" rx="8px"/>
	<path fill="#fff" d="m 38.372551,18.007884 v 29.606998 c 0,0 10.432426,0 16.01577,-0.423801 4.390784,-0.768758 5.198966,-1.192559 6.007145,-5.583344 l 1.616361,-6.430948 h 4.775163 l -0.80818,14.054454 0.423801,14.399408 h -4.814585 l -1.19256,-5.622767 c -1.192559,-4.001478 -2.808919,-4.814585 -6.007145,-5.198965 -4.001478,-0.423801 -16.01577,-0.423801 -16.01577,-0.423801 v 24.831834 c 0,4.775164 2.424542,6.815326 8.007884,6.815326 h 16.82395 c 5.198966,0 10.393004,-0.423801 13.630653,-8.007884 l 4.351361,-9.624246 H 85.2273 C 84.803499,68.400888 82.80276,86.033017 82.418382,90 c 0,0 -15.207589,-0.384378 -21.599114,-0.384378 H 31.981028 L 14.7727,90 v -4.351361 l 5.583343,-1.231983 c 4.040902,-0.808179 5.23346,-2.000739 5.23346,-5.198965 0,0 0.423803,-10.816803 0.423803,-28.83824 0,-17.977086 -0.423803,-28.798819 -0.423803,-28.798819 0,-3.582603 -1.192558,-4.390784 -5.23346,-5.198964 L 14.7727,15.198965 V 10.80818 l 16.823949,0.344955 H 63.628188 C 70.019712,11.153135 80.797093,10 80.797093,10 c 0,0 -0.384378,6.775902 -0.808181,22.791672 H 75.598128 L 73.981767,27.168905 C 72.404829,19.9692 70.014784,16.386596 65.589504,16.386596 H 40.412713 c -2.040162,0.0049 -2.040162,0.389306 -2.040162,1.621288 z"/>
</svg>
