<?xml version="1.0" encoding="UTF-8"?>

<svg width="64" height="64" viewBox="0 0 100 100" xmlns="http://www.w3.org/2000/svg">
	<rect fill="#222" width="100" height="100" rx="8px"/>
	<path fill="#fff" fill-rule="evenodd" d="m 36.08006,82 h -1.764242 c -0.486716,0 -0.882122,-0.39513 -0.882122,-0.882119 v -5.670317 h -1.24709 c -4.213452,0 -7.634174,-3.420716 -7.634174,-7.634169 v -1.247091 h -5.67031 C 18.395131,66.566304 18,66.170899 18,65.684185 v -1.764248 c 0,-0.486715 0.395131,-0.882119 0.882122,-0.882119 h 5.67031 v -3.872615 h -5.67031 C 18.395131,59.165203 18,58.770073 18,58.283082 v -1.764243 c 0,-0.486715 0.395131,-0.882121 0.882122,-0.882121 h 5.67031 v -3.872615 h -5.67031 C 18.395131,51.764103 18,51.368973 18,50.882257 v -1.764243 c 0,-0.48699 0.395131,-0.882121 0.882122,-0.882121 h 5.67031 v -3.872615 h -5.67031 C 18.395131,44.363278 18,43.967873 18,43.481158 v -1.764243 c 0,-0.486716 0.395131,-0.882122 0.882122,-0.882122 h 5.67031 v -3.872612 h -5.67031 C 18.395131,36.962181 18,36.567049 18,36.080059 v -1.764243 c 0,-0.486715 0.395131,-0.881846 0.882122,-0.882121 h 5.67031 v -1.247089 c 0,-4.213452 3.420722,-7.634175 7.634174,-7.634175 h 1.24709 V 18.882122 C 33.433696,18.395131 33.829102,18 34.315818,18 h 1.764242 c 0.48699,0 0.882122,0.395131 0.882122,0.882122 v 5.670309 h 3.872615 V 18.882122 C 40.834797,18.395131 41.229926,18 41.716917,18 h 1.764244 c 0.486715,0 0.882119,0.395131 0.882119,0.882122 v 5.670309 h 3.872616 V 18.882122 C 48.235896,18.395131 48.631027,18 49.118017,18 h 1.763969 c 0.486989,0 0.88212,0.395131 0.88212,0.882122 v 5.670309 h 3.872616 V 18.882122 C 55.636722,18.395131 56.032126,18 56.518841,18 h 1.764244 c 0.486991,0 0.882121,0.395131 0.882121,0.882122 v 5.670309 h 3.872612 V 18.882122 C 63.037818,18.395131 63.432954,18 63.919943,18 h 1.764242 c 0.486714,0 0.882119,0.395131 0.882119,0.882122 v 5.670309 h 1.247091 c 4.213453,0 7.634176,3.420723 7.634176,7.634175 v 1.247089 h 5.67031 C 81.60487,33.43397 82,33.829101 82,34.315816 v 1.764243 c 0,0.486717 -0.39513,0.882122 -0.882119,0.882122 h -5.67031 v 3.872612 h 5.67031 C 81.60487,40.835068 82,41.230199 82,41.716915 v 1.764243 c 0,0.486715 -0.39513,0.881847 -0.882119,0.88212 h -5.67031 v 3.872615 h 5.67031 C 81.60487,48.235893 82,48.631299 82,49.118014 v 1.764243 c 0,0.486716 -0.39513,0.881847 -0.882119,0.881847 h -5.67031 v 3.872615 h 5.67031 C 81.60487,55.636992 82,56.032124 82,56.518839 v 1.764243 c 0,0.486716 -0.39513,0.882121 -0.882119,0.882121 h -5.67031 v 3.872615 h 5.67031 C 81.60487,63.038093 82,63.433222 82,63.919937 v 1.764248 c 0,0.486714 -0.39513,0.88185 -0.882119,0.882119 h -5.67031 v 1.247091 c 0,4.213453 -3.420723,7.634169 -7.634176,7.634169 h -1.247091 v 5.670317 C 66.566304,81.60487 66.171175,82 65.684185,82 h -1.764242 c -0.486989,0 -0.882125,-0.39513 -0.882125,-0.882119 v -5.670317 h -3.872612 v 5.670317 C 59.165206,81.60487 58.770076,82 58.283085,82 h -1.764244 c -0.486715,0 -0.882119,-0.39513 -0.882119,-0.882119 v -5.670317 h -3.872616 v 5.670317 C 51.764106,81.60487 51.368975,82 50.881986,82 h -1.763969 c -0.48699,0 -0.882121,-0.39513 -0.882121,-0.882119 V 75.447564 H 44.36328 v 5.670317 C 44.36328,81.60487 43.96815,82 43.481161,82 h -1.764244 c -0.486715,0 -0.88212,-0.39513 -0.88212,-0.882119 v -5.670317 h -3.872615 v 5.670317 C 36.962182,81.60487 36.56705,82 36.08006,82 Z M 64.526214,47.106438 c 0,1.857473 -0.291212,3.522178 -0.873901,4.994117 -0.582412,1.471939 -1.412706,2.727255 -2.491159,3.766222 -1.07818,1.038967 -2.384772,1.841843 -3.919778,2.408627 -1.534733,0.566784 -3.270458,0.873621 -5.206629,0.921059 v 5.643441 c 0,0.125856 -0.03153,0.236096 -0.0946,0.330688 -0.06279,0.09433 -0.173024,0.16919 -0.330419,0.224307 -0.157394,0.0551 -0.366065,0.09816 -0.625738,0.129697 -0.259674,0.03155 -0.586526,0.04742 -0.980013,0.04742 -0.393486,0 -0.720065,-0.01593 -0.980013,-0.04742 -0.259674,-0.03155 -0.464231,-0.07459 -0.613947,-0.129697 -0.149444,-0.05517 -0.259674,-0.129977 -0.330419,-0.224307 -0.07101,-0.0946 -0.106392,-0.204832 -0.106392,-0.330688 V 59.196463 C 46.005502,59.149031 44.250308,58.86577 42.707624,58.34615 41.164666,57.826803 39.858073,57.075204 38.787846,56.091078 37.717345,55.107227 36.898566,53.899074 36.332056,52.46662 35.765272,51.034167 35.481742,49.38893 35.481742,47.531458 V 35.465015 c 0,-0.110231 0.03565,-0.21251 0.106392,-0.306837 0.07075,-0.0946 0.180977,-0.173298 0.330693,-0.236091 0.149442,-0.06307 0.353999,-0.110232 0.613947,-0.141765 0.259674,-0.03154 0.586254,-0.04717 0.97974,-0.04717 0.39376,0 0.72034,0.01563 0.980012,0.04717 0.259674,0.03154 0.468344,0.07869 0.625739,0.141765 0.157394,0.06279 0.267625,0.14149 0.330692,0.236091 0.06279,0.09433 0.09433,0.196606 0.09433,0.306837 v 11.712167 c 0,1.306593 0.173299,2.483487 0.51962,3.530132 0.346322,1.046919 0.86567,1.936444 1.558314,2.668299 0.692645,0.732131 1.570379,1.298915 2.632929,1.700354 1.062548,0.401163 2.302234,0.617786 3.719058,0.64932 V 35.465015 c 0,-0.110231 0.03537,-0.21251 0.106392,-0.306837 0.07075,-0.0946 0.188928,-0.173298 0.354001,-0.236091 0.165346,-0.06307 0.377856,-0.110232 0.637803,-0.141765 0.259673,-0.03154 0.570623,-0.04717 0.932575,-0.04717 0.393486,0 0.720339,0.01563 0.980012,0.04717 0.259675,0.03154 0.468345,0.07869 0.625739,0.141765 0.157395,0.06279 0.267627,0.14149 0.330419,0.236091 0.06307,0.09433 0.0946,0.196606 0.0946,0.306837 v 20.260272 c 1.416825,-0.0159 2.652398,-0.232253 3.70727,-0.64932 1.054596,-0.417342 1.93233,-0.991804 2.632927,-1.723935 0.700323,-0.731856 1.227895,-1.61343 1.581895,-2.644718 0.354275,-1.031017 0.531411,-2.176375 0.531411,-3.43553 V 35.465015 c 0,-0.110231 0.03154,-0.21251 0.09433,-0.306837 0.06307,-0.0946 0.173299,-0.173298 0.330693,-0.236091 0.157394,-0.06307 0.362226,-0.110232 0.613947,-0.141765 0.251996,-0.03154 0.582414,-0.04717 0.991805,-0.04717 0.377854,0 0.696485,0.01563 0.956433,0.04717 0.259667,0.03154 0.464231,0.07869 0.613945,0.141765 0.149441,0.06279 0.259675,0.14149 0.33042,0.236091 0.07075,0.09433 0.106393,0.196606 0.106393,0.306837 z"/>
</svg>
