<?xml version="1.0" encoding="UTF-8" standalone="no"?>
<svg width="64" height="64" viewBox="0 0 100 100" xmlns="http://www.w3.org/2000/svg">
	<rect fill="#222" width="100" height="100" rx="8px"/>
	<path fill="#fff" d="M 68.472836,28.921132 C 69.714953,15.801155 80.395749,8.0599105 87.668253,15.2372 c 2.312752,2.282473 2.923509,4.524773 1.749752,6.423951 -6.20105,5.080089 -10.809684,7.842109 -17.891217,12.963395 0,0.03462 1.427384,3.501898 3.171968,7.70505 l 3.171969,7.642092 0.216216,4.517757 0.216224,4.517757 c 0.23784,4.969532 0.475328,9.738734 0.527736,10.598226 l 0.0953,1.562712 -1.543048,1.521773 c -2.807857,2.76913 -6.706265,5.032514 -11.250273,6.531829 -2.293856,0.756864 -3.494104,1.023194 -6.735512,1.494578 -0.594808,0.0865 -0.900744,0.37374 -1.735569,1.629496 -2.598704,3.909006 -5.82556,5.740668 -8.80556,4.998294 -2.200784,-0.548256 -6.00348,-2.986877 -7.29204,-4.676298 -2.089137,-2.739041 -1.054777,-5.543441 3.269704,-8.864957 1.374896,-1.056025 2.505016,-2.007228 2.511352,-2.113784 0.0064,-0.106556 -1.2936,-1.631298 -2.888776,-3.388317 l -2.90032,-3.194581 -3.117681,-7.567242 c -1.714728,-4.161983 -3.19148,-7.650344 -3.28168,-7.751915 -0.09019,-0.101568 -4.870784,0.646251 -10.623536,1.661823 -11.758977,2.075889 -11.521249,2.067432 -13.121817,0.466865 -2.2464484,-2.246454 -1.7257043,-8.165992 0.95404,-10.845006 4.779824,-4.778511 14.849905,-3.431019 21.490361,2.875654 0.463616,0.440307 0.870888,0.756342 0.905048,0.702294 0.03416,-0.05405 0.429944,-0.860637 0.879512,-1.792425 5.132992,-10.638845 21.982656,-16.987505 32.614872,-12.258525 m -16.735999,53.60225 c 0.75404,-0.286684 2.387648,-1.801058 3.18672,-2.954121 l 0.63228,-0.912377 -3.046136,-3.053183 -3.046136,-3.053183 -2.356408,1.846158 c -3.990296,3.126254 -4.180816,4.23073 -1.09168,6.328521 2.65416,1.802409 4.327216,2.328237 5.72136,1.798185 z m 10.294337,-7.61352 C 66.30686,75.702663 70.95698,73.470181 74.323124,70.58073 l 0.876281,-0.752193 c -0.147597,-3.78918 -0.259565,-6.124887 -0.422785,-9.839605 -3.969575,-0.07126 -9.956368,0.880885 -13.44592,2.393099 -3.187801,1.381447 -10.472151,7.60907 -10.472151,7.60907 0,0 1.643798,1.804904 3.377406,3.723579 l 3.152008,3.488505 1.365745,-0.141769 c 0.75116,-0.07798 2.12812,-0.291721 3.059904,-0.47499 z M 58.87344,71.811282 c -2.428145,-0.802109 -2.676473,-0.614845 4.974168,-3.750882 3.869024,-1.585932 7.079072,-2.839032 7.133432,-2.784668 0.276184,0.276184 -1.600552,3.375873 -2.623008,4.332257 -2.483576,2.323097 -6.381096,3.228497 -9.484592,2.203293 z m 8.894944,-8.963987 c -0.202728,-0.528313 0.08349,-1.016495 0.595976,-1.016495 0.574712,0 0.824728,0.567123 0.449392,1.019371 -0.358696,0.4322 -0.87896,0.430768 -1.045368,-0.0029 z m 2.936544,-0.451776 c -0.178944,-0.466327 0.06368,-1.016495 0.448288,-1.016495 0.452192,0 0.899912,0.609333 0.744768,1.01362 -0.169344,0.44131 -1.024024,0.443372 -1.193056,0.0029 z m -18.976409,4.771065 c 2.214792,-2.00603 4.758664,-3.852993 7.045569,-5.115394 0.929224,-0.512942 1.660676,-0.861061 1.660676,-0.861061 -3.101038,-7.396077 -11.033823,-26.673185 -11.033823,-26.673185 0,0 -9.131197,3.969943 -11.305551,12.17366 -0.08731,0.329427 1.465544,4.1663 3.256761,8.501109 l 3.256752,7.88147 2.559856,2.868848 c 1.40792,1.577865 2.595792,2.873896 2.639712,2.88007 0.04392,0.0062 0.907944,-0.738809 1.920048,-1.655517 z m -5.162336,-6.778948 c -5.349001,-2.336735 -3.685264,-10.399237 2.145936,-10.399237 5.876064,0 7.51536,8.137666 2.09672,10.408361 -0.918544,0.384918 -3.35264,0.379683 -4.242656,-0.0091 z M 50.428867,56.9968 c 1.845272,-1.845273 -0.02968,-4.793326 -2.52484,-3.969856 -2.580696,0.851705 -1.917872,4.737875 0.808088,4.737875 0.777768,0 1.087136,-0.138402 1.716752,-0.768019 z M 67.211814,33.522963 c -7.044901,-3.669542 -16.349195,0.365894 -16.349195,0.365894 0,0 10.454545,25.666234 10.617017,26.059792 l 0.2954,0.715561 1.722536,-0.53146 c 0.947392,-0.292306 2.658704,-0.687869 3.802904,-0.879034 v 2e-6 c 1.144208,-0.191162 3.281104,-0.416366 4.748656,-0.500452 l 2.66828,-0.152881 -0.151752,-3.74963 -0.151752,-3.749628 -3.33816,-8.116199 m -6.694512,10.39159 c -3.847064,-1.203595 -5.0196,-6.314683 -2.08696,-9.097049 2.582464,-2.450136 6.910088,-1.683956 8.547576,1.513294 2.166136,4.229475 -1.905456,9.008886 -6.460616,7.583755 z m 3.32244,-3.421103 c 0.779936,-0.74722 0.978992,-1.504008 0.654344,-2.487705 -0.863304,-2.615828 -4.737304,-2.056652 -4.737304,0.683788 0,2.291011 2.446384,3.371862 4.08296,1.803917 z M 54.892779,42.065614 c -0.19824,-0.516603 0.07944,-1.016495 0.56472,-1.016495 0.534272,0 0.808584,0.624225 0.459264,1.045126 -0.339848,0.409496 -0.861456,0.394911 -1.023984,-0.02863 z M 53.832243,39.5432 c -0.08282,-0.08282 -0.150592,-0.387773 -0.150592,-0.677664 0,-0.632186 0.991096,-0.761624 1.222112,-0.159608 0.239512,0.624167 -0.61608,1.292716 -1.07152,0.837272 z m -1.372704,-3.153413 c -0.16132,-0.420386 0.22764,-0.987864 0.677104,-0.987864 0.364832,0 0.749904,0.67889 0.6086,1.072968 -0.147208,0.410562 -1.120216,0.346159 -1.285704,-0.0851 z M 23.062465,48.36067 c 9.812929,-1.71033 8.980065,-1.468673 8.127769,-2.358278 -4.962936,-5.180187 -14.974545,-6.017672 -17.357897,-1.452011 -0.85756,1.642787 -0.587088,5.308363 0.391688,5.308363 0.133824,0 4.11112,-0.674133 8.83844,-1.498074 z M 79.342453,25.103131 c 8.460176,-5.899233 8.112856,-5.461075 5.981824,-7.546288 -5.087008,-4.977634 -13.571601,2.378135 -13.571601,11.765979 0,1.167631 -0.672288,1.541406 7.589777,-4.219691 z"/>
</svg>
